<svg width="527" height="583" viewBox="0 0 527 583" fill="none" xmlns="http://www.w3.org/2000/svg">
<path d="M226.5 253.632H153.75V582.882H47.25V253.632H0V167.382H47.25V146.382C47.25 95.3824 61.75 57.8823 90.75 33.8823C119.75 9.88234 163.5 -1.36766 222 0.132355V88.6323C196.5 88.1323 178.75 92.3824 168.75 101.382C158.75 110.382 153.75 126.632 153.75 150.132V167.382H226.5V253.632Z" fill="black"/>
<path d="M526.5 432.882C526.5 515.725 459.343 582.882 376.5 582.882C293.657 582.882 226.5 515.725 226.5 432.882C226.5 350.04 293.657 282.882 376.5 282.882C459.343 282.882 526.5 350.04 526.5 432.882Z" fill="black"/>
</svg>
